<svg width="100" height="100" version="1.1" viewBox="0 0 26.458 26.458" xmlns="http://www.w3.org/2000/svg"><g><rect x="1.707" y="1.707" width="23.044" height="23.044" rx="2.0484" ry="2.0484" fill="#61a699" fill-rule="evenodd" stroke="#61a699" stroke-dashoffset=".45354" stroke-linecap="round" stroke-linejoin="round" stroke-width=".76815"/><path d="m6.0105 5.9584v14.541h1.0465v0.34925h-1.4478v-15.24h1.4478v0.34925zm14.437 14.541v-14.541h-1.0465v-0.34925h1.4478v15.24h-1.4478v-0.34925z" fill="#fff" stroke="#fff" stroke-width=".635"/><path d="m10.605 10.723v0.69597h0.01996c0.1876-0.26648 0.41463-0.4716 0.67811-0.61597 0.26286-0.14737 0.56823-0.21955 0.91062-0.21955 0.32782 0 0.62711 0.06436 0.89909 0.18888 0.27197 0.12511 0.47656 0.35009 0.61922 0.6665 0.15419-0.22496 0.36425-0.42468 0.62772-0.59672 0.26347-0.17262 0.57672-0.25866 0.93855-0.25866 0.27501 0 0.52937 0.03369 0.76492 0.10044 0.23555 0.06615 0.43467 0.17204 0.60283 0.31881 0.16754 0.14737 0.29686 0.33626 0.39217 0.57206 0.09229 0.2358 0.13962 0.51912 0.13962 0.85237v3.4456h-1.426v-2.918c0-0.17204-0.0064-0.33626-0.0195-0.48844-0.0098-0.13815-0.04687-0.27305-0.10919-0.39701-0.06057-0.11334-0.15291-0.20693-0.2659-0.26948-0.11778-0.06616-0.27743-0.09985-0.47656-0.09985-0.20155 0-0.36425 0.03848-0.48748 0.1137-0.1213 0.07389-0.22159 0.1772-0.2914 0.30016-0.07311 0.12949-0.12069 0.27157-0.14024 0.41866-0.02338 0.15635-0.03554 0.31415-0.03641 0.4722v2.8681h-1.4266v-2.8874c0-0.15278-0.0024-0.30257-0.01102-0.45235-5e-3 -0.14184-0.03427-0.2818-0.08674-0.41385-0.04951-0.12475-0.13774-0.2307-0.25194-0.30257-0.11778-0.0752-0.28897-0.11429-0.51845-0.11429-0.06739 0-0.15724 0.01433-0.26651 0.04451-0.10928 0.03069-0.21855 0.08601-0.32175 0.16963-0.1038 0.08301-0.19365 0.2027-0.26651 0.35791-0.07284 0.1558-0.10928 0.36092-0.10928 0.61356v2.9872h-1.4259v-5.1521z" fill="#fff"/></g><g fill="#fff" fill-rule="evenodd"><path d="m7.9375 5.2917h-2.6458v15.875h2.6458v-1.3229h-1.3229v-13.229h1.3229z"/><path d="m18.521 5.2917v1.3229h1.3229v13.229h-1.3229v1.3229h2.6458v-15.875z"/></g></svg>
